HIERARCHY
ROOT Model_Hips
{
	OFFSET 0.000000 96.915077 0.000000
	CHANNELS 6 Xposition Yposition Zposition Xrotation Yrotation Zrotation
	JOINT Model_Spine
	{
		OFFSET 0.000000 11.137703 -1.289900
		CHANNELS 3 Xrotation Yrotation Zrotation
		JOINT Model_Spine1
		{
			OFFSET 0.000000 12.993942 -1.504922
			CHANNELS 3 Xrotation Yrotation Zrotation
			JOINT Model_Spine2
			{
				OFFSET 0.000000 14.850220 -1.719911
				CHANNELS 3 Xrotation Yrotation Zrotation
				JOINT Model_Neck
				{
					OFFSET 0.000000 16.706543 -1.934903
					CHANNELS 3 Xrotation Yrotation Zrotation
					JOINT Model_Head
					{
						OFFSET 0.000000 10.471298 2.002100
						CHANNELS 3 Xrotation Yrotation Zrotation
						JOINT Model_HeadTop_End
						{
							OFFSET 0.000000 20.842606 3.985100
							CHANNELS 3 Xrotation Yrotation Zrotation
							End Site
							{
								OFFSET 0.000000 21.220154 0.000000
							}
						}
					}
				}
				JOINT Model_LeftShoulder
				{
					OFFSET 7.008500 14.768600 -1.919946
					CHANNELS 3 Xrotation Yrotation Zrotation
					JOINT Model_LeftArm
					{
						OFFSET 14.126271 -3.718048 0.029937
						CHANNELS 3 Xrotation Yrotation Zrotation
						JOINT Model_LeftForeArm
						{
							OFFSET 28.282801 0.000000 0.000000
							CHANNELS 3 Xrotation Yrotation Zrotation
							JOINT Model_LeftHand
							{
								OFFSET 26.204689 0.000000 0.000000
								CHANNELS 3 Xrotation Yrotation Zrotation
								End Site
								{
									OFFSET 26.204704 0.000000 0.000000
								}
							}
						}
					}
				}
				JOINT Model_RightShoulder
				{
					OFFSET -7.008500 14.768555 -1.949840
					CHANNELS 3 Xrotation Yrotation Zrotation
					JOINT Model_RightArm
					{
						OFFSET -14.126281 -3.718018 -0.029932
						CHANNELS 3 Xrotation Yrotation Zrotation
						JOINT Model_RightForeArm
						{
							OFFSET -28.283798 0.000000 -0.000001
							CHANNELS 3 Xrotation Yrotation Zrotation
							JOINT Model_RightHand
							{
								OFFSET -26.204193 0.000000 -0.000001
								CHANNELS 3 Xrotation Yrotation Zrotation
								End Site
								{
									OFFSET -26.204208 0.000000 -0.000001
								}
							}
						}
					}
				}
			}
		}
	}
	JOINT Model_LeftUpLeg
	{
		OFFSET 8.327700 -6.193199 -0.402800
		CHANNELS 3 Xrotation Yrotation Zrotation
		JOINT Model_LeftLeg
		{
			OFFSET 0.735802 -42.108742 -0.610721
			CHANNELS 3 Xrotation Yrotation Zrotation
			JOINT Model_LeftFoot
			{
				OFFSET -0.735806 -36.833748 -0.172876
				CHANNELS 3 Xrotation Yrotation Zrotation
				JOINT Model_LeftToeBase
				{
					OFFSET -0.565857 -11.977769 16.297714
					CHANNELS 3 Xrotation Yrotation Zrotation
					JOINT Model_LeftToe_End
					{
						OFFSET -0.111712 -0.312793 7.857784
						CHANNELS 3 Xrotation Yrotation Zrotation
						End Site
						{
							OFFSET -0.111712 -0.312793 7.857784
						}
					}
				}
			}
		}
	}
	JOINT Model_RightUpLeg
	{
		OFFSET -8.327700 -6.193199 -0.516500
		CHANNELS 3 Xrotation Yrotation Zrotation
		JOINT Model_RightLeg
		{
			OFFSET -0.735785 -42.108738 -0.434061
			CHANNELS 3 Xrotation Yrotation Zrotation
			JOINT Model_RightFoot
			{
				OFFSET 0.735776 -36.833748 -0.021630
				CHANNELS 3 Xrotation Yrotation Zrotation
				JOINT Model_RightToeBase
				{
					OFFSET 0.565817 -11.977745 15.903093
					CHANNELS 3 Xrotation Yrotation Zrotation
					JOINT Model_RightToe_End
					{
						OFFSET 0.111702 -0.312791 7.811342
						CHANNELS 3 Xrotation Yrotation Zrotation
						End Site
						{
							OFFSET 0.111702 -0.312791 7.811342
						}
					}
				}
			}
		}
	}
}
MOTION
Frames: 13
Frame Time: 0.016667
0.370187 97.632675 -0.875546 -5.474583 -4.687353 -1.763928 2.343422 0.186963 0.746620 4.686837 0.416963 1.261558 4.686835 0.416962 1.261559 -6.473682 0.048053 -0.127170 -6.473674 0.048052 -0.127169 -0.000000 -0.000000 -0.000000 12.672982 7.217845 -6.412509 0.810682 -36.515117 -69.772944 -0.000008 -27.887808 -0.000008 -0.000001 0.000001 -0.000000 11.546215 8.398555 -1.489059 -5.154668 20.067699 72.643980 -0.000006 31.316714 -0.000002 0.000002 -0.000002 0.000001 -1.116275 13.690594 1.135892 6.558363 -0.015866 -0.252631 -0.506196 0.702708 1.948553 0.002994 -0.026201 0.062610 0.000000 -0.000001 -0.000000 0.179938 -4.162765 -0.161092 13.302096 0.074727 0.422265 -7.756100 -15.991300 0.681464 -0.020498 -0.187013 0.446698 -0.000000 0.000000 0.000000 
0.380501 97.627266 -0.865008 -5.481139 -4.694383 -1.729966 2.353704 0.186922 0.742117 4.707387 0.416904 1.255471 4.707383 0.416905 1.255472 -6.481451 0.052460 -0.135094 -6.481452 0.052461 -0.135094 -0.000000 0.000000 -0.000000 12.674250 7.229524 -6.412009 0.734609 -36.536519 -69.793605 -0.000732 -27.857287 -0.000029 -0.000002 0.000002 -0.000002 11.545071 8.406384 -1.490351 -5.222425 20.104317 72.654382 -0.000716 31.350995 -0.000077 -0.000002 0.000001 -0.000001 -1.141420 13.719377 1.104430 6.664974 -0.009987 -0.255436 -0.623083 0.672919 1.959684 0.003001 -0.026342 0.062956 -0.000000 -0.000001 -0.000000 0.125038 -4.281527 -0.229859 13.442981 0.083123 0.428244 -7.835102 -15.864709 0.692117 -0.020506 -0.187261 0.447281 0.000000 -0.000000 0.000000 
0.391958 97.622169 -0.854250 -5.490664 -4.701904 -1.694471 2.366197 0.187096 0.737502 4.732353 0.417265 1.248902 4.732355 0.417265 1.248901 -6.489907 0.056686 -0.142688 -6.489907 0.056685 -0.142690 0.000000 0.000000 -0.000000 12.675185 7.239874 -6.413580 0.640066 -36.555709 -69.822135 -0.001625 -27.821924 -0.000070 -0.000001 0.000001 -0.000001 11.543459 8.415463 -1.490939 -5.325513 20.152490 72.674265 -0.001386 31.318801 -0.000181 -0.000002 -0.000001 0.000001 -1.155257 13.755604 1.068378 6.756102 -0.002487 -0.257630 -0.732532 0.634069 1.971737 0.003021 -0.026466 0.063270 -0.000000 -0.000000 -0.000000 0.073837 -4.400643 -0.301807 13.581466 0.092338 0.434215 -7.912567 -15.738303 0.703965 -0.020540 -0.187492 0.447833 0.000000 0.000000 0.000000 
0.406271 97.617661 -0.843689 -5.510244 -4.710538 -1.654452 2.384720 0.187568 0.732369 4.769390 0.418277 1.241009 4.769389 0.418278 1.241009 -6.499993 0.060494 -0.149371 -6.499999 0.060494 -0.149372 -0.000000 0.000000 0.000000 12.676181 7.247409 -6.420384 0.479733 -36.571975 -69.882322 -0.002963 -27.782001 -0.000119 -0.000000 0.000000 -0.000000 11.541439 8.428307 -1.488376 -5.536653 20.235564 72.723367 -0.001659 31.082313 -0.000461 0.000003 -0.000000 -0.000000 -1.138965 13.819112 1.020557 6.809407 0.009469 -0.258310 -0.824093 0.563324 1.986663 0.003030 -0.026577 0.063509 0.000000 -0.000000 -0.000000 0.031607 -4.523083 -0.382861 13.719791 0.103920 0.440315 -7.988848 -15.610128 0.718242 -0.020562 -0.187705 0.448314 -0.000000 0.000002 0.000000 
0.422854 97.614029 -0.831206 -5.530530 -4.720410 -1.612357 2.406123 0.188817 0.726926 4.812184 0.420834 1.232107 4.812183 0.420833 1.232108 -6.511061 0.063844 -0.155358 -6.511055 0.063845 -0.155359 -0.000000 -0.000000 0.000000 12.677243 7.251549 -6.430560 0.321199 -36.578579 -69.934874 -0.004485 -27.741206 -0.000123 -0.000002 -0.000000 0.000000 11.539384 8.442838 -1.486648 -5.779004 20.329536 72.780590 -0.001917 30.788802 -0.000765 0.000002 -0.000000 0.000001 -1.102925 13.880013 0.963359 6.828462 0.023819 -0.257753 -0.898369 0.493010 2.002463 0.003042 -0.026641 0.063668 0.000000 -0.000000 -0.000000 -0.005077 -4.641786 -0.467589 13.848427 0.116733 0.446083 -8.060202 -15.486585 0.734702 -0.020575 -0.187859 0.448687 0.000000 0.000001 0.000000 
0.441452 97.612091 -0.815049 -5.546164 -4.731630 -1.569117 2.429266 0.191391 0.721186 4.858445 0.425984 1.222126 4.858448 0.425987 1.222126 -6.522995 0.066529 -0.160593 -6.522988 0.066531 -0.160594 -0.000000 0.000000 0.000000 12.677731 7.249862 -6.445005 0.233037 -36.563283 -69.936656 -0.006206 -27.702349 -0.000156 0.000001 0.000000 -0.000000 11.536901 8.458255 -1.488330 -5.995237 20.414507 72.829125 -0.002539 30.552058 -0.001018 0.000003 0.000002 -0.000001 -1.042118 13.916044 0.894374 6.793782 0.040160 -0.255493 -0.943080 0.445802 2.017653 0.003038 -0.026657 0.063706 0.000000 0.000001 -0.000000 -0.033764 -4.747822 -0.552473 13.953374 0.130363 0.451004 -8.120260 -15.376830 0.753285 -0.020582 -0.187928 0.448870 0.000000 0.000000 -0.000000 
0.462765 97.610519 -0.794507 -5.552280 -4.744748 -1.526088 2.452313 0.195182 0.715236 4.904517 0.433556 1.211563 4.904521 0.433559 1.211563 -6.535984 0.068821 -0.165507 -6.535986 0.068819 -0.165508 -0.000000 -0.000000 -0.000000 12.678084 7.245926 -6.459829 0.164844 -36.541871 -69.923549 -0.007930 -27.668598 -0.000224 0.000001 0.000000 -0.000000 11.534425 8.473004 -1.495374 -6.199647 20.501520 72.876186 -0.003260 30.334421 -0.001243 -0.000000 -0.000000 0.000000 -0.984749 13.923969 0.821056 6.753148 0.056367 -0.252820 -0.986864 0.427944 2.033202 0.003043 -0.026647 0.063699 0.000000 0.000000 -0.000000 -0.065189 -4.849828 -0.637794 14.047391 0.144196 0.455406 -8.175645 -15.270529 0.774487 -0.020588 -0.187947 0.448925 -0.000000 0.000002 0.000000 
0.487329 97.608459 -0.768180 -5.541523 -4.760556 -1.484624 2.473071 0.200528 0.709297 4.946006 0.444173 1.200973 4.946006 0.444172 1.200973 -6.549894 0.070833 -0.170486 -6.549885 0.070832 -0.170486 0.000000 0.000000 -0.000000 12.678140 7.241135 -6.471774 0.085164 -36.528162 -69.920271 -0.009531 -27.643379 -0.000281 -0.000003 0.000000 -0.000001 11.532026 8.485050 -1.511780 -6.387920 20.594238 72.924810 -0.003893 30.135324 -0.001458 0.000004 -0.000001 0.000000 -0.951757 13.890751 0.748394 6.734839 0.070169 -0.251080 -1.046526 0.455981 2.049423 0.003040 -0.026655 0.063700 0.000000 0.000000 -0.000000 -0.110747 -4.951783 -0.723007 14.140031 0.157495 0.459646 -8.231632 -15.162159 0.798693 -0.020593 -0.187947 0.448874 0.000000 -0.000002 0.000000 
0.515555 97.607040 -0.736493 -5.516054 -4.778423 -1.445808 2.491590 0.206780 0.703201 4.983011 0.456529 1.190165 4.983012 0.456528 1.190166 -6.565334 0.072820 -0.175634 -6.565332 0.072822 -0.175633 -0.000000 -0.000000 -0.000000 12.678249 7.239442 -6.480268 0.006063 -36.515735 -69.917081 -0.010954 -27.628947 -0.000293 -0.000003 -0.000001 0.000001 11.529736 8.494720 -1.534292 -6.558430 20.694903 72.970708 -0.004521 29.957322 -0.001571 -0.000000 0.000001 -0.000000 -0.933982 13.824099 0.675774 6.723064 0.082116 -0.249740 -1.116047 0.521601 2.066631 0.003035 -0.026683 0.063751 -0.000000 -0.000002 -0.000000 -0.160911 -5.058553 -0.807028 14.215413 0.169965 0.463177 -8.279397 -15.046531 0.826605 -0.020580 -0.187895 0.448772 0.000000 0.000001 0.000000 
0.548067 97.608734 -0.699214 -5.473735 -4.798850 -1.411015 2.506677 0.213574 0.697214 5.013145 0.469861 1.179231 5.013144 0.469864 1.179230 -6.582538 0.075100 -0.181278 -6.582538 0.075101 -0.181278 -0.000000 -0.000000 -0.000000 12.679097 7.245283 -6.482322 -0.071277 -36.503096 -69.912792 -0.012214 -27.638792 -0.000340 0.000004 -0.000001 0.000000 11.528038 8.501270 -1.562245 -6.706728 20.809752 73.010658 -0.005027 29.802984 -0.001681 0.000000 0.000002 0.000000 -0.910748 13.724475 0.598402 6.669602 0.093738 -0.247086 -1.172922 0.624554 2.084333 0.003044 -0.026761 0.063933 0.000000 0.000000 -0.000000 -0.202479 -5.177630 -0.887485 14.240477 0.181197 0.464639 -8.300836 -14.915139 0.859589 -0.020584 -0.187845 0.448666 0.000000 0.000001 -0.000000 
0.584768 97.608025 -0.656870 -5.420168 -4.819273 -1.381110 2.519707 0.220357 0.690639 5.039156 0.483129 1.167825 5.039153 0.483129 1.167824 -6.601839 0.077609 -0.187033 -6.601842 0.077609 -0.187034 0.000000 0.000000 0.000000 12.680274 7.258562 -6.481709 -0.146047 -36.489025 -69.906535 -0.013335 -27.663538 -0.000396 -0.000003 0.000000 -0.000001 11.526260 8.506026 -1.591895 -6.836905 20.929984 73.044399 -0.005542 29.671786 -0.001723 0.000001 0.000001 0.000001 -0.944294 13.600437 0.535653 6.714391 0.099790 -0.247995 -1.291083 0.757140 2.105289 0.003074 -0.026866 0.064185 0.000000 -0.000001 -0.000000 -0.261681 -5.305376 -0.967464 14.284420 0.191118 0.466797 -8.333722 -14.772284 0.895780 -0.020573 -0.187814 0.448582 0.000000 -0.000003 0.000000 
0.625656 97.599113 -0.609947 -5.358998 -4.838360 -1.357367 2.531194 0.226387 0.682808 5.062086 0.494835 1.155710 5.062088 0.494833 1.155709 -6.623561 0.080493 -0.192642 -6.623570 0.080495 -0.192645 -0.000000 -0.000000 -0.000000 12.682514 7.282152 -6.479866 -0.217227 -36.472227 -69.897219 -0.014335 -27.687446 -0.000402 -0.000000 0.000001 -0.000002 11.524755 8.510238 -1.618841 -6.949638 21.052303 73.068872 -0.006059 29.566195 -0.001724 0.000002 -0.000000 0.000001 -1.108286 13.460125 0.509299 7.017159 0.094104 -0.258004 -1.556607 0.914561 2.133484 0.003077 -0.026988 0.064510 0.000000 0.000000 -0.000000 -0.369165 -5.440350 -1.050438 14.421106 0.199477 0.472549 -8.418101 -14.618271 0.933820 -0.020580 -0.187787 0.448559 0.000000 -0.000002 0.000000 
0.670995 97.584595 -0.558267 -5.293961 -4.853004 -1.340178 2.541964 0.231857 0.673955 5.083583 0.505439 1.142404 5.083583 0.505441 1.142405 -6.647002 0.083475 -0.197797 -6.646991 0.083473 -0.197798 0.000000 -0.000000 -0.000000 12.685590 7.311977 -6.480306 -0.284024 -36.451463 -69.884009 -0.015224 -27.716331 -0.000464 -0.000001 0.000000 -0.000000 11.523503 8.513836 -1.644079 -7.050832 21.166293 73.089595 -0.006607 29.479957 -0.001687 0.000002 -0.000001 0.000002 -1.349787 13.305933 0.505305 7.476412 0.080834 -0.273397 -1.913738 1.087349 2.167645 0.003095 -0.027115 0.064791 0.000000 0.000001 0.000000 -0.500192 -5.583007 -1.133642 14.607333 0.206437 0.480079 -8.531326 -14.457115 0.974827 -0.020589 -0.187820 0.448609 -0.000000 0.000003 0.000000 
